<svg width="288" height="123" viewBox="0 0 288 123" fill="none" xmlns="http://www.w3.org/2000/svg">
<path d="M18.992 23.5318V27.1422H5.72965V23.5318H18.992ZM6.99965 0.726316V27.1422H2.44581V0.726316H6.99965ZM30.7304 27.5051C29.279 27.5051 27.9667 27.2692 26.7934 26.7975C25.6323 26.3137 24.6405 25.6424 23.818 24.7836C23.0076 23.9249 22.3847 22.9149 21.9493 21.7538C21.5139 20.5927 21.2962 19.3408 21.2962 17.9982V17.2725C21.2962 15.7364 21.5199 14.3455 21.9674 13.0997C22.415 11.8539 23.0379 10.7895 23.8362 9.90657C24.6344 9.01152 25.5779 8.32814 26.6664 7.85643C27.755 7.38472 28.9343 7.14886 30.2043 7.14886C31.6073 7.14886 32.835 7.38472 33.8873 7.85643C34.9395 8.32814 35.8104 8.99338 36.4998 9.85214C37.2013 10.6988 37.7214 11.7087 38.0601 12.882C38.4109 14.0552 38.5862 15.3494 38.5862 16.7645V18.6332H23.4189V15.4945H34.2683V15.1498C34.2441 14.3636 34.0868 13.6258 33.7965 12.9364C33.5184 12.247 33.089 11.6906 32.5084 11.2673C31.9278 10.8439 31.1537 10.6323 30.1861 10.6323C29.4604 10.6323 28.8133 10.7895 28.2448 11.104C27.6885 11.4064 27.2228 11.8478 26.8479 12.4284C26.4729 13.009 26.1826 13.7105 25.977 14.533C25.7835 15.3434 25.6867 16.2565 25.6867 17.2725V17.9982C25.6867 18.857 25.8016 19.6553 26.0314 20.3931C26.2733 21.1188 26.6241 21.7538 27.0837 22.2981C27.5433 22.8424 28.0997 23.2718 28.7528 23.5862C29.406 23.8886 30.1498 24.0398 30.9844 24.0398C32.0367 24.0398 32.9741 23.8281 33.7965 23.4048C34.619 22.9815 35.3326 22.3828 35.9374 21.6087L38.2415 23.8402C37.8182 24.4571 37.2679 25.0497 36.5905 25.6182C35.9132 26.1746 35.0847 26.6282 34.105 26.9789C33.1374 27.3297 32.0125 27.5051 30.7304 27.5051ZM53.0642 23.2052V13.8435C53.0642 13.142 52.9372 12.5373 52.6832 12.0293C52.4292 11.5213 52.0421 11.1282 51.522 10.85C51.014 10.5718 50.373 10.4327 49.5989 10.4327C48.8853 10.4327 48.2684 10.5537 47.7483 10.7956C47.2283 11.0375 46.8231 11.364 46.5328 11.7753C46.2425 12.1865 46.0974 12.6522 46.0974 13.1723H41.7431C41.7431 12.3982 41.9306 11.6483 42.3055 10.9226C42.6805 10.1968 43.2247 9.54976 43.9384 8.98128C44.652 8.41281 45.5047 7.96529 46.4965 7.63872C47.4883 7.31215 48.6011 7.14886 49.8348 7.14886C51.3104 7.14886 52.6167 7.39681 53.7536 7.89272C54.9026 8.38862 55.8037 9.13852 56.4569 10.1424C57.1221 11.1342 57.4547 12.38 57.4547 13.8798V22.6065C57.4547 23.5016 57.5152 24.3059 57.6362 25.0195C57.7692 25.721 57.9567 26.3318 58.1986 26.8519V27.1422H53.7173C53.5117 26.6705 53.3484 26.0718 53.2275 25.3461C53.1186 24.6083 53.0642 23.8947 53.0642 23.2052ZM53.6992 15.2043L53.7355 17.9075H50.5968C49.7864 17.9075 49.0728 17.9862 48.4559 18.1434C47.8391 18.2885 47.325 18.5062 46.9138 18.7965C46.5025 19.0868 46.1941 19.4376 45.9885 19.8488C45.7829 20.26 45.6801 20.7257 45.6801 21.2458C45.6801 21.7659 45.801 22.2437 46.0429 22.6791C46.2848 23.1024 46.6356 23.435 47.0952 23.6769C47.5669 23.9188 48.1354 24.0398 48.8006 24.0398C49.6957 24.0398 50.4758 23.8584 51.141 23.4955C51.8184 23.1206 52.3506 22.667 52.7376 22.1348C53.1247 21.5905 53.3303 21.0765 53.3545 20.5927L54.7696 22.5339C54.6245 23.0298 54.3765 23.562 54.0257 24.1305C53.675 24.699 53.2154 25.2433 52.6469 25.7634C52.0905 26.2714 51.4192 26.6886 50.633 27.0152C49.859 27.3418 48.9639 27.5051 47.9479 27.5051C46.6658 27.5051 45.5228 27.2511 44.5189 26.7431C43.515 26.223 42.7288 25.5275 42.1604 24.6567C41.5919 23.7737 41.3077 22.7758 41.3077 21.6631C41.3077 20.6229 41.5012 19.7037 41.8882 18.9054C42.2874 18.095 42.8679 17.4177 43.6299 16.8734C44.404 16.3291 45.3474 15.9179 46.4602 15.6397C47.573 15.3494 48.843 15.2043 50.2702 15.2043H53.6992ZM66.4173 11.2491V27.1422H62.0449V7.51172H66.2177L66.4173 11.2491ZM72.4225 7.38472L72.3862 11.4487C72.1202 11.4003 71.8299 11.364 71.5154 11.3398C71.213 11.3157 70.9106 11.3036 70.6083 11.3036C69.8583 11.3036 69.1992 11.4124 68.6307 11.6301C68.0622 11.8357 67.5845 12.1381 67.1974 12.5373C66.8225 12.9243 66.5322 13.396 66.3266 13.9524C66.1209 14.5088 66 15.1317 65.9637 15.8211L64.9658 15.8937C64.9658 14.66 65.0868 13.517 65.3287 12.4647C65.5706 11.4124 65.9335 10.4871 66.4173 9.68885C66.9132 8.89057 67.53 8.26767 68.2678 7.82014C69.0177 7.37262 69.8825 7.14886 70.8623 7.14886C71.1283 7.14886 71.4126 7.17305 71.715 7.22143C72.0294 7.26981 72.2653 7.32424 72.4225 7.38472ZM79.4982 11.7027V27.1422H75.1258V7.51172H79.2442L79.4982 11.7027ZM78.7181 16.6013L77.3029 16.5831C77.315 15.1922 77.5086 13.9161 77.8835 12.755C78.2706 11.5938 78.8027 10.596 79.4801 9.76142C80.1695 8.92685 80.992 8.28581 81.9475 7.83829C82.903 7.37867 83.9674 7.14886 85.1406 7.14886C86.084 7.14886 86.9368 7.28191 87.6988 7.548C88.4728 7.802 89.132 8.21929 89.6763 8.79986C90.2327 9.38042 90.656 10.1364 90.9463 11.0677C91.2366 11.9869 91.3817 13.1178 91.3817 14.4604V27.1422H86.9912V14.4423C86.9912 13.4988 86.8521 12.755 86.5739 12.2107C86.3078 11.6543 85.9147 11.2612 85.3946 11.0314C84.8866 10.7895 84.2516 10.6686 83.4896 10.6686C82.7397 10.6686 82.0684 10.8258 81.4758 11.1403C80.8831 11.4547 80.3812 11.8841 79.9699 12.4284C79.5708 12.9727 79.2624 13.6016 79.0446 14.3153C78.8269 15.0289 78.7181 15.7909 78.7181 16.6013ZM6.3465 55.7027V71.1422H1.97409V51.5117H6.09251L6.3465 55.7027ZM5.56637 60.6013L4.15123 60.5831C4.16332 59.1922 4.35685 57.9161 4.7318 56.755C5.11884 55.5938 5.65103 54.596 6.32836 53.7614C7.01779 52.9269 7.84026 52.2858 8.79578 51.8383C9.7513 51.3787 10.8157 51.1489 11.9889 51.1489C12.9323 51.1489 13.785 51.2819 14.547 51.548C15.3211 51.802 15.9803 52.2193 16.5246 52.7999C17.081 53.3804 17.5043 54.1364 17.7946 55.0677C18.0849 55.9869 18.23 57.1178 18.23 58.4604V71.1422H13.8395V58.4423C13.8395 57.4988 13.7004 56.755 13.4222 56.2107C13.1561 55.6543 12.763 55.2612 12.2429 55.0314C11.7349 54.7895 11.0999 54.6686 10.3379 54.6686C9.58802 54.6686 8.91673 54.8258 8.32407 55.1403C7.7314 55.4547 7.22945 55.8841 6.81822 56.4284C6.41908 56.9727 6.11065 57.6016 5.89294 58.3153C5.67522 59.0289 5.56637 59.7909 5.56637 60.6013ZM31.3473 71.5051C29.8958 71.5051 28.5835 71.2692 27.4103 70.7975C26.2491 70.3137 25.2573 69.6424 24.4349 68.7836C23.6245 67.9249 23.0016 66.9149 22.5662 65.7538C22.1307 64.5927 21.913 63.3408 21.913 61.9982V61.2725C21.913 59.7364 22.1368 58.3455 22.5843 57.0997C23.0318 55.8539 23.6547 54.7895 24.453 53.9066C25.2513 53.0115 26.1947 52.3281 27.2833 51.8564C28.3718 51.3847 29.5511 51.1489 30.8211 51.1489C32.2242 51.1489 33.4518 51.3847 34.5041 51.8564C35.5564 52.3281 36.4272 52.9934 37.1167 53.8521C37.8182 54.6988 38.3383 55.7087 38.6769 56.882C39.0277 58.0552 39.2031 59.3494 39.2031 60.7645V62.6332H24.0357V59.4945H34.8851V59.1498C34.8609 58.3636 34.7037 57.6258 34.4134 56.9364C34.1352 56.247 33.7058 55.6906 33.1253 55.2673C32.5447 54.8439 31.7706 54.6323 30.803 54.6323C30.0773 54.6323 29.4302 54.7895 28.8617 55.104C28.3053 55.4064 27.8397 55.8478 27.4647 56.4284C27.0898 57.009 26.7995 57.7105 26.5939 58.533C26.4003 59.3434 26.3036 60.2565 26.3036 61.2725V61.9982C26.3036 62.857 26.4185 63.6553 26.6483 64.3931C26.8902 65.1188 27.2409 65.7538 27.7006 66.2981C28.1602 66.8424 28.7166 67.2718 29.3697 67.5862C30.0228 67.8886 30.7667 68.0398 31.6013 68.0398C32.6535 68.0398 33.5909 67.8281 34.4134 67.4048C35.2359 66.9815 35.9495 66.3828 36.5542 65.6087L38.8584 67.8402C38.435 68.4571 37.8847 69.0497 37.2074 69.6182C36.5301 70.1746 35.7015 70.6282 34.7218 70.9789C33.7542 71.3297 32.6294 71.5051 31.3473 71.5051ZM47.9479 66.7879L52.4836 51.5117H55.2776L54.5156 56.0837L49.9436 71.1422H47.4399L47.9479 66.7879ZM45.2809 51.5117L48.8188 66.8605L49.1091 71.1422H46.3151L40.9992 51.5117H45.2809ZM59.523 66.6791L62.952 51.5117H67.2156L61.9179 71.1422H59.1239L59.523 66.6791ZM55.7493 51.5117L60.2306 66.6065L60.793 71.1422H58.2893L53.6629 56.0656L52.9009 51.5117H55.7493ZM87.4629 68.0217C88.1765 68.0217 88.8176 67.8826 89.386 67.6044C89.9666 67.3141 90.4323 66.9149 90.783 66.4069C91.1459 65.8989 91.3455 65.3123 91.3817 64.6471H95.5002C95.476 65.9171 95.101 67.0722 94.3753 68.1124C93.6496 69.1526 92.688 69.9811 91.4906 70.5979C90.2932 71.2027 88.9688 71.5051 87.5173 71.5051C86.0175 71.5051 84.7112 71.2511 83.5985 70.7431C82.4857 70.223 81.5604 69.5094 80.8226 68.6022C80.0848 67.6951 79.5285 66.6488 79.1535 65.4635C78.7906 64.2782 78.6092 63.0082 78.6092 61.6535V61.0185C78.6092 59.6639 78.7906 58.3939 79.1535 57.2086C79.5285 56.0111 80.0848 54.9588 80.8226 54.0517C81.5604 53.1446 82.4857 52.437 83.5985 51.929C84.7112 51.4089 86.0115 51.1489 87.4992 51.1489C89.0716 51.1489 90.4504 51.4633 91.6357 52.0923C92.8211 52.7091 93.7524 53.5739 94.4297 54.6867C95.1192 55.7874 95.476 57.0695 95.5002 58.533H91.3817C91.3455 57.8073 91.164 57.1541 90.8375 56.5736C90.523 55.9809 90.0755 55.5092 89.4949 55.1584C88.9264 54.8077 88.243 54.6323 87.4448 54.6323C86.5618 54.6323 85.8301 54.8137 85.2495 55.1766C84.6689 55.5273 84.2153 56.0111 83.8888 56.628C83.5622 57.2327 83.3263 57.9161 83.1812 58.6781C83.0482 59.428 82.9816 60.2082 82.9816 61.0185V61.6535C82.9816 62.4639 83.0482 63.2501 83.1812 64.0121C83.3143 64.7741 83.5441 65.4575 83.8706 66.0622C84.2093 66.6549 84.6689 67.1327 85.2495 67.4955C85.8301 67.8463 86.5679 68.0217 87.4629 68.0217ZM98.022 61.5447V61.1274C98.022 59.7123 98.2276 58.3999 98.6389 57.1904C99.0501 55.9688 99.6428 54.9105 100.417 54.0154C101.203 53.1083 102.159 52.4068 103.283 51.9109C104.42 51.4029 105.702 51.1489 107.13 51.1489C108.569 51.1489 109.851 51.4029 110.976 51.9109C112.113 52.4068 113.074 53.1083 113.861 54.0154C114.647 54.9105 115.246 55.9688 115.657 57.1904C116.068 58.3999 116.274 59.7123 116.274 61.1274V61.5447C116.274 62.9598 116.068 64.2721 115.657 65.4817C115.246 66.6912 114.647 67.7495 113.861 68.6567C113.074 69.5517 112.119 70.2532 110.994 70.7612C109.869 71.2571 108.593 71.5051 107.166 71.5051C105.727 71.5051 104.439 71.2571 103.302 70.7612C102.177 70.2532 101.221 69.5517 100.435 68.6567C99.6488 67.7495 99.0501 66.6912 98.6389 65.4817C98.2276 64.2721 98.022 62.9598 98.022 61.5447ZM102.394 61.1274V61.5447C102.394 62.4276 102.485 63.2622 102.667 64.0484C102.848 64.8346 103.132 65.524 103.519 66.1167C103.906 66.7093 104.402 67.175 105.007 67.5137C105.612 67.8523 106.331 68.0217 107.166 68.0217C107.976 68.0217 108.678 67.8523 109.271 67.5137C109.875 67.175 110.371 66.7093 110.758 66.1167C111.145 65.524 111.43 64.8346 111.611 64.0484C111.804 63.2622 111.901 62.4276 111.901 61.5447V61.1274C111.901 60.2565 111.804 59.4341 111.611 58.66C111.43 57.8738 111.139 57.1783 110.74 56.5736C110.353 55.9688 109.857 55.4971 109.252 55.1584C108.66 54.8077 107.952 54.6323 107.13 54.6323C106.307 54.6323 105.594 54.8077 104.989 55.1584C104.396 55.4971 103.906 55.9688 103.519 56.5736C103.132 57.1783 102.848 57.8738 102.667 58.66C102.485 59.4341 102.394 60.2565 102.394 61.1274ZM124.275 55.7027V71.1422H119.902V51.5117H124.021L124.275 55.7027ZM123.494 60.6013L122.079 60.5831C122.091 59.1922 122.285 57.9161 122.66 56.755C123.047 55.5938 123.579 54.596 124.256 53.7614C124.946 52.9269 125.768 52.2858 126.724 51.8383C127.679 51.3787 128.744 51.1489 129.917 51.1489C130.86 51.1489 131.713 51.2819 132.475 51.548C133.249 51.802 133.908 52.2193 134.453 52.7999C135.009 53.3804 135.432 54.1364 135.723 55.0677C136.013 55.9869 136.158 57.1178 136.158 58.4604V71.1422H131.768V58.4423C131.768 57.4988 131.628 56.755 131.35 56.2107C131.084 55.6543 130.691 55.2612 130.171 55.0314C129.663 54.7895 129.028 54.6686 128.266 54.6686C127.516 54.6686 126.845 54.8258 126.252 55.1403C125.66 55.4547 125.158 55.8841 124.746 56.4284C124.347 56.9727 124.039 57.6016 123.821 58.3153C123.603 59.0289 123.494 59.7909 123.494 60.6013ZM148.64 68.0217C149.354 68.0217 149.995 67.8826 150.564 67.6044C151.144 67.3141 151.61 66.9149 151.961 66.4069C152.323 65.8989 152.523 65.3123 152.559 64.6471H156.678C156.653 65.9171 156.278 67.0722 155.553 68.1124C154.827 69.1526 153.865 69.9811 152.668 70.5979C151.471 71.2027 150.146 71.5051 148.695 71.5051C147.195 71.5051 145.889 71.2511 144.776 70.7431C143.663 70.223 142.738 69.5094 142 68.6022C141.262 67.6951 140.706 66.6488 140.331 65.4635C139.968 64.2782 139.787 63.0082 139.787 61.6535V61.0185C139.787 59.6639 139.968 58.3939 140.331 57.2086C140.706 56.0111 141.262 54.9588 142 54.0517C142.738 53.1446 143.663 52.437 144.776 51.929C145.889 51.4089 147.189 51.1489 148.677 51.1489C150.249 51.1489 151.628 51.4633 152.813 52.0923C153.999 52.7091 154.93 53.5739 155.607 54.6867C156.297 55.7874 156.653 57.0695 156.678 58.533H152.559C152.523 57.8073 152.342 57.1541 152.015 56.5736C151.7 55.9809 151.253 55.5092 150.672 55.1584C150.104 54.8077 149.421 54.6323 148.622 54.6323C147.739 54.6323 147.008 54.8137 146.427 55.1766C145.846 55.5273 145.393 56.0111 145.066 56.628C144.74 57.2327 144.504 57.9161 144.359 58.6781C144.226 59.428 144.159 60.2082 144.159 61.0185V61.6535C144.159 62.4639 144.226 63.2501 144.359 64.0121C144.492 64.7741 144.722 65.4575 145.048 66.0622C145.387 66.6549 145.846 67.1327 146.427 67.4955C147.008 67.8463 147.745 68.0217 148.64 68.0217ZM168.688 71.5051C167.237 71.5051 165.924 71.2692 164.751 70.7975C163.59 70.3137 162.598 69.6424 161.776 68.7836C160.965 67.9249 160.342 66.9149 159.907 65.7538C159.472 64.5927 159.254 63.3408 159.254 61.9982V61.2725C159.254 59.7364 159.478 58.3455 159.925 57.0997C160.373 55.8539 160.996 54.7895 161.794 53.9066C162.592 53.0115 163.536 52.3281 164.624 51.8564C165.713 51.3847 166.892 51.1489 168.162 51.1489C169.565 51.1489 170.793 51.3847 171.845 51.8564C172.897 52.3281 173.768 52.9934 174.458 53.8521C175.159 54.6988 175.679 55.7087 176.018 56.882C176.369 58.0552 176.544 59.3494 176.544 60.7645V62.6332H161.377V59.4945H172.226V59.1498C172.202 58.3636 172.045 57.6258 171.754 56.9364C171.476 56.247 171.047 55.6906 170.466 55.2673C169.886 54.8439 169.111 54.6323 168.144 54.6323C167.418 54.6323 166.771 54.7895 166.203 55.104C165.646 55.4064 165.181 55.8478 164.806 56.4284C164.431 57.009 164.14 57.7105 163.935 58.533C163.741 59.3434 163.644 60.2565 163.644 61.2725V61.9982C163.644 62.857 163.759 63.6553 163.989 64.3931C164.231 65.1188 164.582 65.7538 165.041 66.2981C165.501 66.8424 166.057 67.2718 166.711 67.5862C167.364 67.8886 168.108 68.0398 168.942 68.0398C169.994 68.0398 170.932 67.8281 171.754 67.4048C172.577 66.9815 173.29 66.3828 173.895 65.6087L176.199 67.8402C175.776 68.4571 175.226 69.0497 174.548 69.6182C173.871 70.1746 173.042 70.6282 172.063 70.9789C171.095 71.3297 169.97 71.5051 168.688 71.5051ZM184.345 55.2854V78.6896H179.973V51.5117H184.001L184.345 55.2854ZM197.136 61.1455V61.5265C197.136 62.9538 196.967 64.2782 196.628 65.4998C196.301 66.7093 195.812 67.7677 195.158 68.6748C194.517 69.5698 193.725 70.2653 192.782 70.7612C191.838 71.2571 190.75 71.5051 189.516 71.5051C188.294 71.5051 187.224 71.2813 186.305 70.8338C185.398 70.3742 184.63 69.7271 184.001 68.8925C183.372 68.0579 182.864 67.0782 182.477 65.9534C182.102 64.8164 181.836 63.5706 181.678 62.216V60.7464C181.836 59.3071 182.102 58.0008 182.477 56.8276C182.864 55.6543 183.372 54.6444 184.001 53.7977C184.63 52.951 185.398 52.2979 186.305 51.8383C187.212 51.3787 188.27 51.1489 189.48 51.1489C190.713 51.1489 191.808 51.3908 192.764 51.8746C193.719 52.3463 194.523 53.0236 195.177 53.9066C195.83 54.7774 196.32 55.8297 196.646 57.0634C196.973 58.285 197.136 59.6457 197.136 61.1455ZM192.764 61.5265V61.1455C192.764 60.2384 192.679 59.3978 192.51 58.6237C192.34 57.8375 192.074 57.1481 191.711 56.5554C191.348 55.9627 190.883 55.5031 190.314 55.1766C189.758 54.8379 189.087 54.6686 188.301 54.6686C187.526 54.6686 186.861 54.8016 186.305 55.0677C185.748 55.3217 185.283 55.6785 184.908 56.1381C184.533 56.5977 184.243 57.136 184.037 57.7528C183.831 58.3576 183.686 59.0168 183.602 59.7304V63.2501C183.747 64.121 183.995 64.9192 184.345 65.6449C184.696 66.3707 185.192 66.9512 185.833 67.3867C186.486 67.81 187.321 68.0217 188.337 68.0217C189.123 68.0217 189.794 67.8523 190.351 67.5137C190.907 67.175 191.361 66.7093 191.711 66.1167C192.074 65.5119 192.34 64.8164 192.51 64.0302C192.679 63.2441 192.764 62.4095 192.764 61.5265ZM209.854 51.5117V54.7048H198.787V51.5117H209.854ZM201.98 46.7039H206.353V65.7175C206.353 66.3223 206.437 66.7879 206.607 67.1145C206.788 67.429 207.036 67.6407 207.35 67.7495C207.665 67.8584 208.034 67.9128 208.457 67.9128C208.76 67.9128 209.05 67.8947 209.328 67.8584C209.606 67.8221 209.83 67.7858 209.999 67.7495L210.017 71.0878C209.655 71.1966 209.231 71.2934 208.747 71.3781C208.276 71.4627 207.731 71.5051 207.115 71.5051C206.111 71.5051 205.222 71.3297 204.448 70.9789C203.673 70.6161 203.069 70.0295 202.633 69.2191C202.198 68.4087 201.98 67.3322 201.98 65.9897V46.7039ZM224.241 65.8264C224.241 65.3909 224.133 64.9979 223.915 64.6471C223.697 64.2842 223.28 63.9577 222.663 63.6674C222.058 63.3771 221.163 63.111 219.978 62.8691C218.938 62.6393 217.982 62.3672 217.111 62.0527C216.252 61.7261 215.515 61.333 214.898 60.8734C214.281 60.4138 213.803 59.8695 213.465 59.2405C213.126 58.6116 212.957 57.8859 212.957 57.0634C212.957 56.2651 213.132 55.5092 213.483 54.7956C213.833 54.0819 214.335 53.453 214.989 52.9087C215.642 52.3644 216.434 51.935 217.365 51.6206C218.309 51.3061 219.361 51.1489 220.522 51.1489C222.167 51.1489 223.576 51.4271 224.749 51.9834C225.935 52.5277 226.842 53.2716 227.471 54.215C228.1 55.1463 228.414 56.1986 228.414 57.3718H224.042C224.042 56.8517 223.909 56.3679 223.643 55.9204C223.389 55.4608 223.002 55.0919 222.482 54.8137C221.961 54.5234 221.308 54.3783 220.522 54.3783C219.772 54.3783 219.149 54.4992 218.653 54.7411C218.17 54.9709 217.807 55.2733 217.565 55.6483C217.335 56.0232 217.22 56.4345 217.22 56.882C217.22 57.2086 217.281 57.5049 217.402 57.771C217.535 58.025 217.752 58.2608 218.055 58.4785C218.357 58.6842 218.768 58.8777 219.288 59.0591C219.821 59.2405 220.486 59.4159 221.284 59.5853C222.784 59.8997 224.072 60.3049 225.148 60.8008C226.237 61.2846 227.072 61.9136 227.652 62.6877C228.233 63.4497 228.523 64.4173 228.523 65.5905C228.523 66.4614 228.336 67.2597 227.961 67.9854C227.598 68.699 227.066 69.3219 226.364 69.8541C225.663 70.3742 224.822 70.7794 223.842 71.0696C222.875 71.3599 221.786 71.5051 220.577 71.5051C218.799 71.5051 217.293 71.1906 216.059 70.5616C214.825 69.9206 213.888 69.1042 213.247 68.1124C212.618 67.1085 212.303 66.0683 212.303 64.9918H216.531C216.579 65.8022 216.803 66.4493 217.202 66.9331C217.613 67.4048 218.121 67.7495 218.726 67.9672C219.343 68.1728 219.978 68.2757 220.631 68.2757C221.417 68.2757 222.076 68.1728 222.609 67.9672C223.141 67.7495 223.546 67.4592 223.824 67.0964C224.102 66.7214 224.241 66.2981 224.241 65.8264ZM7.92493 115.142H3.55252V93.6249C3.55252 92.1613 3.82466 90.9337 4.36894 89.9419C4.92532 88.938 5.71755 88.182 6.74565 87.674C7.77374 87.1539 8.9893 86.8939 10.3923 86.8939C10.8278 86.8939 11.2572 86.9241 11.6805 86.9846C12.1038 87.033 12.5151 87.1116 12.9142 87.2205L12.8053 90.595C12.5634 90.5345 12.2973 90.4922 12.0071 90.468C11.7289 90.4438 11.4265 90.4317 11.0999 90.4317C10.4347 90.4317 9.86016 90.5587 9.37635 90.8127C8.90464 91.0546 8.54178 91.4114 8.28778 91.8832C8.04588 92.3549 7.92493 92.9354 7.92493 93.6249V115.142ZM11.9708 95.5117V98.7048H0.540813V95.5117H11.9708ZM14.3112 105.545V105.127C14.3112 103.712 14.5168 102.4 14.928 101.19C15.3393 99.9688 15.9319 98.9105 16.706 98.0154C17.4922 97.1083 18.4477 96.4068 19.5726 95.9109C20.7095 95.4029 21.9916 95.1489 23.4189 95.1489C24.8582 95.1489 26.1403 95.4029 27.2651 95.9109C28.4021 96.4068 29.3637 97.1083 30.1498 98.0154C30.936 98.9105 31.5347 99.9688 31.946 101.19C32.3572 102.4 32.5628 103.712 32.5628 105.127V105.545C32.5628 106.96 32.3572 108.272 31.946 109.482C31.5347 110.691 30.936 111.75 30.1498 112.657C29.3637 113.552 28.4081 114.253 27.2833 114.761C26.1584 115.257 24.8824 115.505 23.4552 115.505C22.0158 115.505 20.7277 115.257 19.5907 114.761C18.4659 114.253 17.5104 113.552 16.7242 112.657C15.938 111.75 15.3393 110.691 14.928 109.482C14.5168 108.272 14.3112 106.96 14.3112 105.545ZM18.6836 105.127V105.545C18.6836 106.428 18.7743 107.262 18.9557 108.048C19.1372 108.835 19.4214 109.524 19.8085 110.117C20.1955 110.709 20.6914 111.175 21.2962 111.514C21.9009 111.852 22.6206 112.022 23.4552 112.022C24.2655 112.022 24.9671 111.852 25.5597 111.514C26.1645 111.175 26.6604 110.709 27.0474 110.117C27.4345 109.524 27.7187 108.835 27.9001 108.048C28.0937 107.262 28.1904 106.428 28.1904 105.545V105.127C28.1904 104.257 28.0937 103.434 27.9001 102.66C27.7187 101.874 27.4284 101.178 27.0293 100.574C26.6422 99.9688 26.1463 99.4971 25.5416 99.1584C24.9489 98.8077 24.2413 98.6323 23.4189 98.6323C22.5964 98.6323 21.8828 98.8077 21.278 99.1584C20.6854 99.4971 20.1955 99.9688 19.8085 100.574C19.4214 101.178 19.1372 101.874 18.9557 102.66C18.7743 103.434 18.6836 104.257 18.6836 105.127ZM40.6182 99.2491V115.142H36.2458V95.5117H40.4187L40.6182 99.2491ZM46.6235 95.3847L46.5872 99.4487C46.3211 99.4003 46.0308 99.364 45.7163 99.3398C45.414 99.3157 45.1116 99.3036 44.8092 99.3036C44.0593 99.3036 43.4001 99.4124 42.8316 99.6301C42.2632 99.8357 41.7854 100.138 41.3984 100.537C41.0234 100.924 40.7331 101.396 40.5275 101.952C40.3219 102.509 40.2009 103.132 40.1647 103.821L39.1668 103.894C39.1668 102.66 39.2878 101.517 39.5297 100.465C39.7716 99.4124 40.1344 98.4871 40.6182 97.6889C41.1141 96.8906 41.731 96.2677 42.4688 95.8201C43.2187 95.3726 44.0835 95.1489 45.0632 95.1489C45.3293 95.1489 45.6135 95.1731 45.9159 95.2214C46.2304 95.2698 46.4663 95.3242 46.6235 95.3847ZM67.27 115.505C65.8186 115.505 64.5062 115.269 63.333 114.797C62.1719 114.314 61.1801 113.642 60.3576 112.784C59.5472 111.925 58.9243 110.915 58.4889 109.754C58.0534 108.593 57.8357 107.341 57.8357 105.998V105.273C57.8357 103.736 58.0595 102.346 58.507 101.1C58.9545 99.8539 59.5774 98.7895 60.3757 97.9066C61.174 97.0115 62.1174 96.3281 63.206 95.8564C64.2946 95.3847 65.4738 95.1489 66.7438 95.1489C68.1469 95.1489 69.3745 95.3847 70.4268 95.8564C71.4791 96.3281 72.35 96.9934 73.0394 97.8521C73.7409 98.6988 74.261 99.7087 74.5997 100.882C74.9504 102.055 75.1258 103.349 75.1258 104.765V106.633H59.9584V103.495H70.8078V103.15C70.7836 102.364 70.6264 101.626 70.3361 100.936C70.0579 100.247 69.6285 99.6906 69.048 99.2673C68.4674 98.8439 67.6933 98.6323 66.7257 98.6323C66 98.6323 65.3529 98.7895 64.7844 99.104C64.228 99.4064 63.7624 99.8478 63.3874 100.428C63.0125 101.009 62.7222 101.711 62.5166 102.533C62.323 103.343 62.2263 104.257 62.2263 105.273V105.998C62.2263 106.857 62.3412 107.655 62.571 108.393C62.8129 109.119 63.1637 109.754 63.6233 110.298C64.0829 110.842 64.6393 111.272 65.2924 111.586C65.9456 111.889 66.6894 112.04 67.524 112.04C68.5763 112.04 69.5136 111.828 70.3361 111.405C71.1586 110.981 71.8722 110.383 72.477 109.609L74.7811 111.84C74.3578 112.457 73.8074 113.05 73.1301 113.618C72.4528 114.175 71.6242 114.628 70.6445 114.979C69.6769 115.33 68.5521 115.505 67.27 115.505ZM89.6037 111.205V101.844C89.6037 101.142 89.4767 100.537 89.2227 100.029C88.9687 99.5213 88.5817 99.1282 88.0616 98.85C87.5536 98.5718 86.9126 98.4327 86.1385 98.4327C85.4249 98.4327 84.808 98.5537 84.2879 98.7956C83.7678 99.0375 83.3626 99.364 83.0723 99.7753C82.7821 100.187 82.6369 100.652 82.6369 101.172H78.2826C78.2826 100.398 78.4701 99.6483 78.8451 98.9226C79.22 98.1968 79.7643 97.5498 80.4779 96.9813C81.1915 96.4128 82.0443 95.9653 83.0361 95.6387C84.0279 95.3121 85.1406 95.1489 86.3743 95.1489C87.8499 95.1489 89.1562 95.3968 90.2932 95.8927C91.4422 96.3886 92.3433 97.1385 92.9964 98.1424C93.6617 99.1342 93.9943 100.38 93.9943 101.88V110.607C93.9943 111.502 94.0548 112.306 94.1757 113.02C94.3088 113.721 94.4963 114.332 94.7382 114.852V115.142H90.2569C90.0513 114.67 89.888 114.072 89.767 113.346C89.6582 112.608 89.6037 111.895 89.6037 111.205ZM90.2387 103.204L90.275 105.908H87.1363C86.3259 105.908 85.6123 105.986 84.9955 106.143C84.3786 106.289 83.8646 106.506 83.4533 106.797C83.0421 107.087 82.7337 107.438 82.5281 107.849C82.3224 108.26 82.2196 108.726 82.2196 109.246C82.2196 109.766 82.3406 110.244 82.5825 110.679C82.8244 111.102 83.1752 111.435 83.6348 111.677C84.1065 111.919 84.675 112.04 85.3402 112.04C86.2352 112.04 87.0154 111.858 87.6806 111.496C88.3579 111.121 88.8901 110.667 89.2772 110.135C89.6642 109.591 89.8698 109.076 89.894 108.593L91.3092 110.534C91.164 111.03 90.9161 111.562 90.5653 112.131C90.2146 112.699 89.7549 113.243 89.1865 113.763C88.6301 114.271 87.9588 114.689 87.1726 115.015C86.3985 115.342 85.5035 115.505 84.4875 115.505C83.2054 115.505 82.0624 115.251 81.0585 114.743C80.0546 114.223 79.2684 113.528 78.6999 112.657C78.1315 111.774 77.8472 110.776 77.8472 109.663C77.8472 108.623 78.0407 107.704 78.4278 106.905C78.8269 106.095 79.4075 105.418 80.1695 104.873C80.9436 104.329 81.887 103.918 82.9998 103.64C84.1125 103.349 85.3825 103.204 86.8098 103.204H90.2387ZM106.585 112.022C107.299 112.022 107.94 111.883 108.509 111.604C109.089 111.314 109.555 110.915 109.906 110.407C110.268 109.899 110.468 109.312 110.504 108.647H114.623C114.598 109.917 114.224 111.072 113.498 112.112C112.772 113.153 111.811 113.981 110.613 114.598C109.416 115.203 108.091 115.505 106.64 115.505C105.14 115.505 103.834 115.251 102.721 114.743C101.608 114.223 100.683 113.509 99.9451 112.602C99.2073 111.695 98.651 110.649 98.276 109.464C97.9131 108.278 97.7317 107.008 97.7317 105.654V105.019C97.7317 103.664 97.9131 102.394 98.276 101.209C98.651 100.011 99.2073 98.9588 99.9451 98.0517C100.683 97.1446 101.608 96.437 102.721 95.929C103.834 95.4089 105.134 95.1489 106.622 95.1489C108.194 95.1489 109.573 95.4633 110.758 96.0923C111.944 96.7091 112.875 97.5739 113.552 98.6867C114.242 99.7874 114.598 101.069 114.623 102.533H110.504C110.468 101.807 110.287 101.154 109.96 100.574C109.645 99.9809 109.198 99.5092 108.617 99.1584C108.049 98.8077 107.366 98.6323 106.567 98.6323C105.684 98.6323 104.953 98.8137 104.372 99.1766C103.791 99.5273 103.338 100.011 103.011 100.628C102.685 101.233 102.449 101.916 102.304 102.678C102.171 103.428 102.104 104.208 102.104 105.019V105.654C102.104 106.464 102.171 107.25 102.304 108.012C102.437 108.774 102.667 109.457 102.993 110.062C103.332 110.655 103.791 111.133 104.372 111.496C104.953 111.846 105.69 112.022 106.585 112.022ZM122.297 87.2749V115.142H117.943V87.2749H122.297ZM121.535 104.601L120.12 104.583C120.132 103.228 120.319 101.977 120.682 100.828C121.057 99.6785 121.577 98.6807 122.243 97.834C122.92 96.9752 123.73 96.316 124.674 95.8564C125.617 95.3847 126.663 95.1489 127.812 95.1489C128.78 95.1489 129.651 95.2819 130.425 95.548C131.211 95.8141 131.889 96.2435 132.457 96.8361C133.025 97.4167 133.455 98.1787 133.745 99.1221C134.048 100.053 134.199 101.19 134.199 102.533V115.142H129.808V102.497C129.808 101.553 129.669 100.803 129.391 100.247C129.125 99.6906 128.732 99.2915 128.212 99.0496C127.692 98.7956 127.057 98.6686 126.307 98.6686C125.52 98.6686 124.825 98.8258 124.22 99.1403C123.628 99.4547 123.132 99.8841 122.732 100.428C122.333 100.973 122.031 101.602 121.825 102.315C121.632 103.029 121.535 103.791 121.535 104.601ZM159.834 122.69V99.4124L160.342 95.5117H164.243V122.69H159.834ZM147.08 105.527V105.146C147.08 103.658 147.249 102.303 147.588 101.082C147.927 99.8478 148.429 98.7895 149.094 97.9066C149.759 97.0236 150.57 96.3463 151.525 95.8746C152.481 95.3908 153.581 95.1489 154.827 95.1489C156.037 95.1489 157.089 95.3787 157.984 95.8383C158.891 96.2979 159.653 96.9571 160.27 97.8159C160.899 98.6625 161.401 99.6725 161.776 100.846C162.151 102.019 162.423 103.325 162.592 104.765V105.98C162.435 107.383 162.169 108.665 161.794 109.826C161.419 110.988 160.917 111.991 160.288 112.838C159.659 113.685 158.891 114.344 157.984 114.816C157.077 115.275 156.012 115.505 154.791 115.505C153.569 115.505 152.481 115.257 151.525 114.761C150.57 114.265 149.759 113.57 149.094 112.675C148.441 111.768 147.939 110.709 147.588 109.5C147.249 108.278 147.08 106.954 147.08 105.527ZM151.453 105.146V105.527C151.453 106.422 151.531 107.262 151.688 108.048C151.858 108.822 152.124 109.512 152.487 110.117C152.849 110.709 153.309 111.175 153.865 111.514C154.422 111.852 155.093 112.022 155.879 112.022C156.907 112.022 157.748 111.798 158.401 111.35C159.066 110.903 159.574 110.304 159.925 109.554C160.288 108.792 160.542 107.952 160.687 107.032V103.749C160.603 103.035 160.451 102.37 160.234 101.753C160.016 101.124 159.714 100.58 159.326 100.12C158.952 99.6483 158.48 99.2854 157.911 99.0314C157.355 98.7653 156.69 98.6323 155.916 98.6323C155.129 98.6323 154.452 98.8016 153.884 99.1403C153.315 99.4789 152.849 99.9507 152.487 100.555C152.136 101.148 151.876 101.838 151.707 102.624C151.537 103.41 151.453 104.25 151.453 105.146ZM180.735 110.516V95.5117H185.126V115.142H180.989L180.735 110.516ZM181.352 106.434L182.821 106.397C182.821 107.716 182.676 108.931 182.386 110.044C182.096 111.145 181.648 112.106 181.043 112.929C180.439 113.739 179.665 114.374 178.721 114.834C177.778 115.281 176.647 115.505 175.328 115.505C174.373 115.505 173.496 115.366 172.698 115.088C171.899 114.81 171.21 114.38 170.629 113.8C170.061 113.219 169.619 112.463 169.305 111.532C168.991 110.6 168.833 109.488 168.833 108.194V95.5117H173.206V108.23C173.206 108.943 173.29 109.542 173.46 110.026C173.629 110.498 173.859 110.879 174.149 111.169C174.439 111.459 174.778 111.665 175.165 111.786C175.552 111.907 175.963 111.967 176.399 111.967C177.645 111.967 178.624 111.725 179.338 111.242C180.064 110.746 180.578 110.08 180.88 109.246C181.195 108.411 181.352 107.474 181.352 106.434ZM198.261 115.505C196.809 115.505 195.497 115.269 194.324 114.797C193.163 114.314 192.171 113.642 191.348 112.784C190.538 111.925 189.915 110.915 189.48 109.754C189.044 108.593 188.827 107.341 188.827 105.998V105.273C188.827 103.736 189.05 102.346 189.498 101.1C189.945 99.8539 190.568 98.7895 191.367 97.9066C192.165 97.0115 193.108 96.3281 194.197 95.8564C195.285 95.3847 196.465 95.1489 197.735 95.1489C199.138 95.1489 200.365 95.3847 201.418 95.8564C202.47 96.3281 203.341 96.9934 204.03 97.8521C204.732 98.6988 205.252 99.7087 205.591 100.882C205.941 102.055 206.117 103.349 206.117 104.765V106.633H190.949V103.495H201.799V103.15C201.775 102.364 201.617 101.626 201.327 100.936C201.049 100.247 200.619 99.6906 200.039 99.2673C199.458 98.8439 198.684 98.6323 197.717 98.6323C196.991 98.6323 196.344 98.7895 195.775 99.104C195.219 99.4064 194.753 99.8478 194.378 100.428C194.003 101.009 193.713 101.711 193.507 102.533C193.314 103.343 193.217 104.257 193.217 105.273V105.998C193.217 106.857 193.332 107.655 193.562 108.393C193.804 109.119 194.155 109.754 194.614 110.298C195.074 110.842 195.63 111.272 196.283 111.586C196.936 111.889 197.68 112.04 198.515 112.04C199.567 112.04 200.505 111.828 201.327 111.405C202.149 110.981 202.863 110.383 203.468 109.609L205.772 111.84C205.349 112.457 204.798 113.05 204.121 113.618C203.444 114.175 202.615 114.628 201.635 114.979C200.668 115.33 199.543 115.505 198.261 115.505ZM220.54 109.826C220.54 109.391 220.431 108.998 220.214 108.647C219.996 108.284 219.579 107.958 218.962 107.667C218.357 107.377 217.462 107.111 216.277 106.869C215.236 106.639 214.281 106.367 213.41 106.053C212.551 105.726 211.814 105.333 211.197 104.873C210.58 104.414 210.102 103.869 209.763 103.241C209.425 102.612 209.255 101.886 209.255 101.063C209.255 100.265 209.431 99.5092 209.782 98.7956C210.132 98.0819 210.634 97.453 211.287 96.9087C211.941 96.3644 212.733 95.935 213.664 95.6206C214.608 95.3061 215.66 95.1489 216.821 95.1489C218.466 95.1489 219.875 95.4271 221.048 95.9834C222.234 96.5277 223.141 97.2716 223.77 98.215C224.399 99.1463 224.713 100.199 224.713 101.372H220.341C220.341 100.852 220.208 100.368 219.942 99.9204C219.688 99.4608 219.3 99.0919 218.78 98.8137C218.26 98.5234 217.607 98.3783 216.821 98.3783C216.071 98.3783 215.448 98.4992 214.952 98.7411C214.468 98.9709 214.106 99.2733 213.864 99.6483C213.634 100.023 213.519 100.434 213.519 100.882C213.519 101.209 213.579 101.505 213.7 101.771C213.833 102.025 214.051 102.261 214.354 102.479C214.656 102.684 215.067 102.878 215.587 103.059C216.119 103.241 216.785 103.416 217.583 103.585C219.083 103.9 220.371 104.305 221.447 104.801C222.536 105.285 223.371 105.914 223.951 106.688C224.532 107.45 224.822 108.417 224.822 109.591C224.822 110.461 224.634 111.26 224.26 111.985C223.897 112.699 223.364 113.322 222.663 113.854C221.961 114.374 221.121 114.779 220.141 115.07C219.173 115.36 218.085 115.505 216.875 115.505C215.097 115.505 213.592 115.191 212.358 114.562C211.124 113.921 210.187 113.104 209.546 112.112C208.917 111.108 208.602 110.068 208.602 108.992H212.83C212.878 109.802 213.102 110.449 213.501 110.933C213.912 111.405 214.42 111.75 215.025 111.967C215.642 112.173 216.277 112.276 216.93 112.276C217.716 112.276 218.375 112.173 218.907 111.967C219.44 111.75 219.845 111.459 220.123 111.096C220.401 110.721 220.54 110.298 220.54 109.826ZM237.649 95.5117V98.7048H226.582V95.5117H237.649ZM229.775 90.7039H234.147V109.718C234.147 110.322 234.232 110.788 234.401 111.115C234.583 111.429 234.831 111.641 235.145 111.75C235.46 111.858 235.829 111.913 236.252 111.913C236.554 111.913 236.845 111.895 237.123 111.858C237.401 111.822 237.625 111.786 237.794 111.75L237.812 115.088C237.449 115.197 237.026 115.293 236.542 115.378C236.07 115.463 235.526 115.505 234.909 115.505C233.905 115.505 233.016 115.33 232.242 114.979C231.468 114.616 230.863 114.029 230.428 113.219C229.993 112.409 229.775 111.332 229.775 109.99V90.7039ZM245.704 95.5117V115.142H241.314V95.5117H245.704ZM241.023 90.3592C241.023 89.6939 241.241 89.1436 241.677 88.7082C242.124 88.2607 242.741 88.0369 243.527 88.0369C244.301 88.0369 244.912 88.2607 245.36 88.7082C245.807 89.1436 246.031 89.6939 246.031 90.3592C246.031 91.0123 245.807 91.5566 245.36 91.992C244.912 92.4274 244.301 92.6452 243.527 92.6452C242.741 92.6452 242.124 92.4274 241.677 91.992C241.241 91.5566 241.023 91.0123 241.023 90.3592ZM249.659 105.545V105.127C249.659 103.712 249.865 102.4 250.276 101.19C250.687 99.9688 251.28 98.9105 252.054 98.0154C252.84 97.1083 253.796 96.4068 254.921 95.9109C256.058 95.4029 257.34 95.1489 258.767 95.1489C260.206 95.1489 261.489 95.4029 262.613 95.9109C263.75 96.4068 264.712 97.1083 265.498 98.0154C266.284 98.9105 266.883 99.9688 267.294 101.19C267.705 102.4 267.911 103.712 267.911 105.127V105.545C267.911 106.96 267.705 108.272 267.294 109.482C266.883 110.691 266.284 111.75 265.498 112.657C264.712 113.552 263.756 114.253 262.631 114.761C261.507 115.257 260.231 115.505 258.803 115.505C257.364 115.505 256.076 115.257 254.939 114.761C253.814 114.253 252.859 113.552 252.072 112.657C251.286 111.75 250.687 110.691 250.276 109.482C249.865 108.272 249.659 106.96 249.659 105.545ZM254.032 105.127V105.545C254.032 106.428 254.123 107.262 254.304 108.048C254.485 108.835 254.77 109.524 255.157 110.117C255.544 110.709 256.04 111.175 256.644 111.514C257.249 111.852 257.969 112.022 258.803 112.022C259.614 112.022 260.315 111.852 260.908 111.514C261.513 111.175 262.009 110.709 262.396 110.117C262.783 109.524 263.067 108.835 263.248 108.048C263.442 107.262 263.539 106.428 263.539 105.545V105.127C263.539 104.257 263.442 103.434 263.248 102.66C263.067 101.874 262.777 101.178 262.378 100.574C261.99 99.9688 261.495 99.4971 260.89 99.1584C260.297 98.8077 259.59 98.6323 258.767 98.6323C257.945 98.6323 257.231 98.8077 256.626 99.1584C256.034 99.4971 255.544 99.9688 255.157 100.574C254.77 101.178 254.485 101.874 254.304 102.66C254.123 103.434 254.032 104.257 254.032 105.127ZM275.912 99.7027V115.142H271.54V95.5117H275.658L275.912 99.7027ZM275.132 104.601L273.717 104.583C273.729 103.192 273.922 101.916 274.297 100.755C274.684 99.5938 275.217 98.596 275.894 97.7614C276.583 96.9269 277.406 96.2858 278.361 95.8383C279.317 95.3787 280.381 95.1489 281.554 95.1489C282.498 95.1489 283.351 95.2819 284.113 95.548C284.887 95.802 285.546 96.2193 286.09 96.7999C286.647 97.3804 287.07 98.1364 287.36 99.0677C287.65 99.9869 287.796 101.118 287.796 102.46V115.142H283.405V102.442C283.405 101.499 283.266 100.755 282.988 100.211C282.722 99.6543 282.329 99.2612 281.808 99.0314C281.3 98.7895 280.665 98.6686 279.903 98.6686C279.154 98.6686 278.482 98.8258 277.89 99.1403C277.297 99.4547 276.795 99.8841 276.384 100.428C275.985 100.973 275.676 101.602 275.458 102.315C275.241 103.029 275.132 103.791 275.132 104.601Z" fill="#333333"/>
</svg>
